<svg viewBox="20 10 80 80" xmlns="http://www.w3.org/2000/svg" version="1.1">
 <title>Example triangle01- 'path' の単純な例</title>
 <desc>三角形を描くパス</desc>
 fill="none" stroke="blue" />
 <path d="M 33.25 16.025278207000508 C 32.0125 16.01137519315023 29.875 17.125 28.5 18.5 C 26.944444444444443 20.055555555555557 26 22.133333333333333 26 24 C 26 25.65 26.718232309083987 29.1375 27.59607179796442 31.75 C 28.817051115483906 35.38370354993694 28.934556004964225 37.02877200266145 28.09607179796442 38.75 C 27.49323230908399 39.9875 27 41.9 27 43 C 27 44.1 27.9 45.45 29 46 C 30.1 46.55 31.5625 46.79335988647727 32.25 46.54079974772727 C 32.9375 46.28823960897727 34.244611443600775 44.60073960897727 35.154692096890614 42.79079974772727 C 36.06477275018045 40.98085988647727 37.29976312969924 37.7 37.89911516248792 35.5 C 38.49846719527659 33.3 39.006023382671565 28.8 39.02701780114341 25.5 C 39.05552142071855 21.019668967058752 38.61369715435026 19.063165635728122 37.28259473554611 17.775278207000508 C 36.30216763099575 16.826681220850787 34.4875 16.039181220850786 33.25 16.025278207000508 Z M 15.25 18.025278207000508 C 14.0125 18.01137519315023 12.029399448381973 19.0125 10.843109885293275 20.25 C 9.06600455055934 22.103820450048765 8.782723188934392 23.29235909990247 9.234286149351865 27 C 9.535722657672789 29.475 10.956323209290815 34.0875 12.39117626405859 37.25 C 13.826029318826365 40.4125 16.0125 43.697443923338966 17.25 44.54987538519771 C 18.4875 45.402306847056444 20.4 45.96020979614915 21.5 45.789659716514834 C 22.773760289505443 45.59216888123285 23.610306095530625 44.57547853664944 23.803773241635348 42.989784331317125 C 23.970848524534787 41.62040294909271 23.408348524534787 39.0375 22.553773241635348 37.25 C 21.64498244521012 35.34909836954499 21.01353030910185 31.40558005856733 21.03259473554611 27.75 C 21.057182515417388 23.035323791686757 20.6272918537451 21.07631897554676 19.28259473554611 19.775278207000508 C 18.302167630995747 18.826681220850787 16.4875 18.039181220850786 15.25 18.025278207000508 Z"
 fill="#456" />
</svg>
 
